<svg xmlns="http://www.w3.org/2000/svg" viewBox="0 0 953.97 703.38"><defs><style>.cls-1{fill:#f87711;}.cls-2{fill:#00538c;}.cls-3{fill:none;}.cls-4{fill:#9be2f0;}.cls-5{fill:#f74f19;}</style></defs><g id="Layer_2" data-name="Layer 2"><g id="Layer_1-2" data-name="Layer 1"><path class="cls-1" d="M280.78,265c0-3.6-.23-3.83-3.91-3.83-4.71,0-9.45.28-14.14-.09-3.29-.27-4.71,1.15-6,3.83-5.28,11.17-10.72,22.26-16.11,33.38-1.7,3.51-3.4,7-5.28,10.88a1.68,1.68,0,0,1-3,0v0q-10.74-22.61-21.43-45.25c-.92-2-2.07-2.87-4.36-2.8-5.62.16-11.26,0-16.89,0-2.93,0-3.32.36-3.33,3.22q0,8.69,0,17.36v68.95c0,3.11.29,3.4,3.36,3.4,3.73,0,7.46,0,11.19.05S205,353.78,205,350V304.38l4.1-.95.45.93c5.33,11,10.69,21.94,16,32.95.95,2,2,3.14,4.45,2.86a35.57,35.57,0,0,1,5.75-.08,5.17,5.17,0,0,0,4.94-3c6.36-13.34,12.8-26.64,19.22-40a12.43,12.43,0,0,1,.86-1.32l.45.14v54.47c0,3.2.38,3.61,3.48,3.64,4.26.05,8.52,0,12.78.06,2.73,0,3.36-.58,3.36-3.33q0-12.56,0-25.11Q280.79,295.33,280.78,265Z"/><path class="cls-1" d="M353.08,305.82c-5.49-2.66-11.49-4.24-17.25-6.31-5.33-1.92-10.76-3.6-15.94-5.86a7.22,7.22,0,0,1-4.34-7.64c.3-3.62,2.38-5.92,5.56-7.44,4-1.89,8.18-1.81,12.31-1.34,6.58.74,11.73,3.57,13.27,10.76.11.51,1.32,1.1,2,1.11,4.72.1,9.44,0,14.15.09,1.64,0,2.11-.57,2-2.14a27,27,0,0,0-10.73-20.28c-6-4.65-12.84-6.67-20.26-7.23-10.06-.76-19.46.86-27.81,7-12.53,9.29-14.53,33.39,2.67,42.39,6.33,3.31,13.14,5,19.9,7,4.85,1.42,9.86,2.76,14.24,5.15,6.57,3.56,6.22,11.62-.22,15.46-4.1,2.43-8.65,2.91-13.23,2.53-8.55-.73-15.16-3.5-17.09-12.71a1.69,1.69,0,0,0-1.65-1.33c-5,0-9.84.06-14.7,0-2,0-2.48.78-2.39,2.58.56,10.65,5.23,19,14.79,23.71,13.67,6.77,28,6.58,42,1.12,10.36-4.05,16.1-12,16.52-23.45C367.26,318.27,362.56,310.41,353.08,305.82Z"/><path class="cls-1" d="M169.37,335.16H135.8a1.69,1.69,0,0,1-1.69-1.69v-2.7q0-33,0-66c0-3.59-.08-3.63-3.76-3.63-4.72,0-9.44,0-14.16,0-3.66,0-3.85.18-3.85,3.9V350c0,.61,0,1.22,0,1.83a2,2,0,0,0,2.26,2.22c1.68,0,3.35,0,5,0q24.77,0,49.53,0c3.15,0,3.41-.31,3.42-3.38,0-4.11,0-8.22,0-12.33C172.55,335.73,172,335.17,169.37,335.16Z"/><path class="cls-2" d="M953.32,580c-3-12-12.55-17.89-25.34-15.34q-33.09,6.63-66.15,13.41-107,21.93-213.94,43.86c-25,5.09-50,9.81-75,14.71a18.92,18.92,0,0,1,7.25-6.51c41.7-23.7,85.59-42.12,132.51-52.34,65.71-14.31,131.62-27.73,197.46-41.42,9.73-2,15.28-8.08,17.65-17.19a50.92,50.92,0,0,0,1.17-12.6q.12-85.2.09-170.4c0-42.47.09-84.94-.08-127.4-.06-14.14-7.61-21.47-21-21.37C895.3,187.51,888,195.5,888,209q0,135,.08,269.93V497a24,24,0,0,1-2.79,1q-69.18,14.54-138.36,29c-78.66,16.32-152.49,44.38-218.83,90.37-18,12.47-35.18,26.11-52.84,39.28-49.64-46.93-108-80.48-172.15-105-8.85-3.38-17.79-6.42-26.79-9.22C239.47,531.06,201.62,524,164,515.76c-31.49-6.86-63.08-13.27-94.79-19.91V141.17a49,49,0,0,1,5.24.93c60.46,18.47,121,36.62,181.33,55.57,48,15.09,96.14,30.18,140.14,55.33,11.65,6.66,23,13.93,34.63,21.5,7.1,4.6,14.32,9.32,21.84,14.08l-.38.32,15.4-11.24,15.92-11.61c-6.46-5.19-12.85-10.65-19.46-15.87-3-2.4-6.12-4.76-9.28-7-46.86-33.31-98.58-57-153-74.59C240.91,149,179.83,130.52,118.79,112q-34.19-10.36-69-18.59c-12.94-3.07-24.22,6.54-25.3,19.85-.26,3.16-.15,6.36-.15,9.55q0,162.82,0,325.67c0,21.23-.09,42.47.07,63.7.1,12.47,6.65,20.37,18.75,22.95,6.72,1.44,13.52,2.5,20.26,3.86,37.9,7.62,75.81,15.19,113.68,23,51.66,10.61,103.32,21.38,151.23,44.59,17.28,8.36,34,17.86,51,26.85-2.32,1.49-4.09,1.78-5.73,1.45C321.7,624.31,269.86,613.59,218,603.13c-64.32-13-128.7-25.71-193-38.61C12.44,562,1.56,569.76.2,582.38c-1.56,14.6,5.86,23.4,23,26.77,39,7.65,78,15,116.88,22.77q127.73,25.38,255.36,51.21c5,1,10.14,4.33,13.85,8,7.13,7,14.61,11.91,25,11.9,27.07,0,54.14.33,81.21.38,11.34,0,21-3.38,28.78-12.56a25.41,25.41,0,0,1,13.33-7.64c31.08-6.63,62.29-12.62,93.45-18.86q117.2-23.45,234.39-46.93c17.38-3.48,34.83-6.76,52-10.92A21.7,21.7,0,0,0,953.32,580Z"/><path class="cls-1" d="M741.39,491.41c0-38.5,0-75.09,0-111.69,0-49.37,0-98.74.28-148.1a43.4,43.4,0,0,1,3.44-16.83c3.14-7.14,9.88-10.09,17.61-10.11,14.06-.05,28.13-.28,42.18.22,12.52.45,20.66,9.12,20.67,21.57q.12,113.46.09,226.93c0,9.87-3.79,18-13,20.58C789.48,480.39,766,485.49,741.39,491.41Z"/><path class="cls-1" d="M694.91,510.24l-81,21.29V515.58c0-68.43-.06-136.86.27-205.28,0-6.33,1.16-13.87,4.75-18.59,3.32-4.36,10.47-7.47,16.21-8,12.89-1.13,26-.56,39-.2,13.57.38,20.8,8.12,20.81,21.65q0,98.67,0,197.33Z"/><path class="cls-1" d="M483.58,602.86V582.47q0-93.08.13-186.17c0-20.9,8.11-28.75,28.88-28.77,11.93,0,23.87-.12,35.8.1s19.3,7.56,19.33,19.5q.16,80.37-.12,160.72c0,2.56-1.8,6.2-3.89,7.5-25.89,16-52,31.73-78.05,47.49C485.3,603.06,484.68,602.86,483.58,602.86Z"/><path class="cls-3" d="M280.79,350.82q0-12.56,0-25.11,0-30.37,0-60.73c0-3.6-.23-3.83-3.91-3.83-4.71,0-9.45.28-14.14-.09-3.29-.27-4.71,1.15-6,3.83-5.28,11.17-10.72,22.26-16.11,33.38-2.1,4.35-4.22,8.7-6.65,13.7-.79-1.32-1.3-2-1.67-2.82q-10.74-22.61-21.43-45.25c-.92-2-2.07-2.87-4.36-2.8-5.62.16-11.26,0-16.89,0-2.93,0-3.32.36-3.33,3.22q0,8.69,0,17.36v68.95c0,3.11.29,3.4,3.36,3.4,3.73,0,7.46,0,11.19.05S205,353.78,205,350V296a72.34,72.34,0,0,1,4.55,8.4c5.33,11,10.69,21.94,16,32.95.95,2,2,3.14,4.45,2.86a40.06,40.06,0,0,1,6.84,0c1.79.11,2.69-.59,3.46-2.21q9.72-20.43,19.61-40.79a12.43,12.43,0,0,1,.86-1.32l.45.14v54.47c0,3.2.38,3.61,3.48,3.64,4.26.05,8.52,0,12.78.06C280.16,354.17,280.79,353.57,280.79,350.82Z"/><path class="cls-3" d="M169.37,335.16H134.11v-4.39q0-33,0-66c0-3.59-.08-3.63-3.76-3.63-4.72,0-9.44,0-14.16,0-3.66,0-3.85.18-3.85,3.9V350c0,.61,0,1.22,0,1.83a2,2,0,0,0,2.26,2.22c1.68,0,3.35,0,5,0q24.77,0,49.53,0c3.15,0,3.41-.31,3.42-3.38,0-4.11,0-8.22,0-12.33C172.55,335.73,172,335.17,169.37,335.16Z"/><path class="cls-3" d="M308.39,351.33c13.67,6.77,28,6.58,42,1.12,10.36-4.05,16.1-12,16.52-23.45.39-10.73-4.31-18.59-13.79-23.18-5.49-2.66-11.49-4.24-17.25-6.31-5.33-1.92-10.76-3.6-15.94-5.86a7.22,7.22,0,0,1-4.34-7.64c.3-3.62,2.38-5.92,5.56-7.44,4-1.89,8.18-1.81,12.31-1.34,6.58.74,11.73,3.57,13.27,10.76.11.51,1.32,1.1,2,1.11,4.72.1,9.44,0,14.15.09,1.64,0,2.11-.57,2-2.14a27,27,0,0,0-10.73-20.28c-6-4.65-12.84-6.67-20.26-7.23-10.06-.76-19.46.86-27.81,7-12.53,9.29-14.53,33.39,2.67,42.39,6.33,3.31,13.14,5,19.9,7,4.85,1.42,9.86,2.76,14.24,5.15,6.57,3.56,6.22,11.62-.22,15.46-4.1,2.43-8.65,2.91-13.23,2.53-8.94-.76-15.77-3.76-17.33-14-5.48,0-10.8.07-16.11,0-2,0-2.48.78-2.39,2.58C294.16,338.27,298.83,346.6,308.39,351.33Z"/><path class="cls-4" d="M283,479.43c-6.38-8.22-5.7-20,2.4-28.3,13.18-13.45,26.73-26.55,40.2-39.71q59.79-58.4,119.66-116.7c1.6-1.56,3.41-3,6.8-5.82l.38-.32c-7.52-4.76-14.74-9.48-21.84-14.08-11.67-7.57-23-14.84-34.63-21.5-44-25.15-92.14-40.24-140.14-55.33-60.31-18.95-120.87-37.1-181.33-55.57a49,49,0,0,0-5.24-.93V495.85c31.71,6.64,63.3,13,94.79,19.91,37.6,8.19,75.45,15.3,112.25,26.71l40.88-62.85h0a49.25,49.25,0,0,1-5.47,3.92C301.61,489.7,289.44,487.78,283,479.43ZM296,325c5.31.11,10.63,0,16.11,0,1.56,10.28,8.39,13.28,17.33,14,4.58.38,9.13-.1,13.23-2.53,6.44-3.84,6.79-11.9.22-15.46-4.38-2.39-9.39-3.73-14.24-5.15-6.76-2-13.57-3.7-19.9-7-17.2-9-15.2-33.1-2.67-42.39,8.35-6.18,17.75-7.8,27.81-7,7.42.56,14.3,2.58,20.26,7.23a27,27,0,0,1,10.73,20.28c.11,1.57-.36,2.17-2,2.14-4.71-.08-9.43,0-14.15-.09-.71,0-1.92-.6-2-1.11-1.54-7.19-6.69-10-13.27-10.76-4.13-.47-8.35-.55-12.31,1.34-3.18,1.52-5.26,3.82-5.56,7.44a7.22,7.22,0,0,0,4.34,7.64c5.18,2.26,10.61,3.94,15.94,5.86,5.76,2.07,11.76,3.65,17.25,6.31,9.48,4.59,14.18,12.45,13.79,23.18-.42,11.43-6.16,19.4-16.52,23.45-14,5.46-28.29,5.65-42-1.12-9.56-4.73-14.23-13.06-14.79-23.71C293.51,325.82,294,325,296,325ZM172.56,350.7c0,3.07-.27,3.37-3.42,3.38q-24.76,0-49.53,0c-1.68,0-3.35-.06-5,0a2,2,0,0,1-2.26-2.22c0-.61,0-1.22,0-1.83V265.05c0-3.72.19-3.9,3.85-3.9,4.72,0,9.44,0,14.16,0,3.68,0,3.76,0,3.76,3.63q0,33,0,66v4.39h35.26c2.63,0,3.18.57,3.19,3.21C172.58,342.48,172.57,346.59,172.56,350.7Zm92.09,3.39c-3.1,0-3.47-.44-3.48-3.64V296l-.45-.14a12.43,12.43,0,0,0-.86,1.32Q250,317.54,240.25,338c-.77,1.62-1.67,2.32-3.46,2.21a40.06,40.06,0,0,0-6.84,0c-2.44.28-3.5-.87-4.45-2.86-5.27-11-10.63-22-16-32.95A72.34,72.34,0,0,0,205,296v54c0,3.83-.38,4.2-4.14,4.18s-7.46,0-11.19-.05c-3.07,0-3.36-.29-3.36-3.4V281.73q0-8.69,0-17.36c0-2.86.4-3.22,3.33-3.22,5.63,0,11.27.11,16.89,0,2.29-.07,3.44.84,4.36,2.8q10.65,22.67,21.43,45.25c.37.78.88,1.5,1.67,2.82,2.43-5,4.55-9.35,6.65-13.7,5.39-11.12,10.83-22.21,16.11-33.38,1.27-2.68,2.69-4.1,6-3.83,4.69.37,9.43.09,14.14.09,3.68,0,3.91.23,3.91,3.83q0,30.36,0,60.73,0,12.56,0,25.11c0,2.75-.63,3.35-3.36,3.33C273.17,354.13,268.91,354.14,264.65,354.09Z"/><path class="cls-5" d="M915.85,25.82C915.84,8.34,907.62.12,890,.07Q851.34,0,812.72.06a46.31,46.31,0,0,0-11,1.24C791.5,3.89,784.43,15,785.78,25.79c1.4,11.19,8.68,17,21.05,16.85,8.87-.08,17.74,0,26.79,0-.27,1.51-.2,2.14-.47,2.48a444.17,444.17,0,0,1-72.64,72.2c-40.19,31.51-86,53-131.56,75.15-48.78,23.72-99.57,43.53-145.31,73.83l-.29-.23L452,288.9c-3.39,2.87-5.2,4.26-6.8,5.82Q385.38,353,325.57,411.42c-13.47,13.16-27,26.26-40.2,39.71-8.1,8.27-8.78,20.08-2.4,28.3s18.64,10.27,28.71,4.11a49.25,49.25,0,0,0,5.47-3.92c1.74-1.44,3.41-3,5-4.54,43-42.6,86.4-84.74,128.58-128.1,32.44-33.35,69.06-59.52,111.72-78.55,52.23-23.28,104-47.89,154.61-74.4A450.15,450.15,0,0,0,847.81,91.41C855,83.2,862.07,74.88,870.15,65.5c0,17.2-.16,32.84.06,48.47.15,11,7.35,19,18.17,20.91,11.28,2,21.84-3,25.35-13,1.7-4.86,1.94-10.41,2-15.65C915.92,79.43,915.86,52.62,915.85,25.82Z"/></g></g></svg>